<?xml version="1.0" encoding="UTF-8" standalone="no"?>
<!-- Created with Inkscape (http://www.inkscape.org/) -->

<svg
   width="60mm"
   height="60mm"
   viewBox="0 0 60 60"
   version="1.1"
   id="svg1228"
   inkscape:export-filename="logo.png"
   inkscape:export-xdpi="96"
   inkscape:export-ydpi="96"
   sodipodi:docname="logo.svg"
   inkscape:version="1.2.1 (9c6d41e410, 2022-07-14)"
   xmlns:inkscape="http://www.inkscape.org/namespaces/inkscape"
   xmlns:sodipodi="http://sodipodi.sourceforge.net/DTD/sodipodi-0.dtd"
   xmlns="http://www.w3.org/2000/svg"
   xmlns:svg="http://www.w3.org/2000/svg">
  <sodipodi:namedview
     id="namedview1230"
     pagecolor="#ffffff"
     bordercolor="#666666"
     borderopacity="1.0"
     inkscape:showpageshadow="2"
     inkscape:pageopacity="0.0"
     inkscape:pagecheckerboard="0"
     inkscape:deskcolor="#d1d1d1"
     inkscape:document-units="mm"
     showgrid="false"
     inkscape:zoom="2.2601823"
     inkscape:cx="134.72365"
     inkscape:cy="147.99691"
     inkscape:window-width="1912"
     inkscape:window-height="1054"
     inkscape:window-x="0"
     inkscape:window-y="18"
     inkscape:window-maximized="1"
     inkscape:current-layer="layer1" />
  <defs
     id="defs1225" />
  <g
     inkscape:label="Layer 1"
     inkscape:groupmode="layer"
     id="layer1">
    <path
       id="path263-6-7"
       style="fill:#000080;stroke:#000080;stroke-width:0.289566;stop-color:#000000"
       d="m 30.000261,0.144715 a 29.855217,29.855217 0 0 0 -29.855542,29.85503 29.855217,29.855217 0 0 0 29.855542,29.85554 29.855217,29.855217 0 0 0 29.85502,-29.85554 29.855217,29.855217 0 0 0 -29.85502,-29.85503 z m 14.1149,6.74119 c 0.0757,-0.009 0.14612,0.0627 0.22376,0.15555 0.12421,0.14857 0.26726,0.35272 0.43822,0.38602 0.17096,0.0333 0.37003,-0.10371 0.58911,-0.22686 0.21907,-0.12315 0.45764,-0.23215 0.59686,-0.18035 0.13923,0.0518 0.17926,0.26391 0.2713,0.37931 0.0921,0.11535 0.23619,0.13432 0.57774,0.0548 0.34155,-0.0796 0.8808,-0.25784 1.15549,-0.2837 0.27469,-0.0259 0.28499,0.10022 0.27078,0.2589 -0.0142,0.15868 -0.0532,0.35036 0.0842,0.39274 0.13749,0.0424 0.45107,-0.0645 0.64337,-0.0238 0.1923,0.0407 0.26379,0.22852 0.2868,0.42426 0.023,0.19573 -0.002,0.39988 0.17415,0.66766 0.17622,0.26779 0.55333,0.59892 0.72192,0.86145 0.16859,0.26253 0.12871,0.45618 0.0842,0.58962 -0.0444,0.13343 -0.0936,0.20681 0.0408,0.3359 0.13445,0.12909 0.45234,0.31372 0.62322,0.45785 0.17088,0.14414 0.19498,0.24785 0.14314,0.34365 -0.0518,0.0958 -0.17992,0.18414 -0.19224,0.29197 -0.0123,0.10784 0.0909,0.23472 0.0615,0.34882 -0.0294,0.1141 -0.19118,0.21605 -0.26769,0.38344 -0.0765,0.16738 -0.0677,0.39969 -0.0579,0.6072 0.01,0.20751 0.0204,0.39021 -0.10129,0.48369 -0.12168,0.0935 -0.37588,0.0982 -0.59686,0.22014 -0.22099,0.122 -0.40832,0.36137 -0.57981,0.52245 -0.17149,0.16108 -0.32755,0.24385 -0.47336,0.29197 -0.14582,0.0481 -0.28169,0.0614 -0.40462,0.0496 -0.12293,-0.0118 -0.233,-0.0491 -0.32143,-0.008 -0.0884,0.0403 -0.15453,0.15779 -0.26148,0.23565 -0.10695,0.0779 -0.25476,0.11655 -0.37052,0.2036 -0.11579,0.087 -0.1993,0.22229 -0.28991,0.25167 -0.0906,0.0294 -0.18859,-0.0474 -0.32039,-0.11524 -0.13181,-0.0678 -0.29762,-0.12593 -0.43564,-0.22583 -0.13803,-0.0999 -0.24842,-0.24197 -0.42374,-0.36897 -0.17531,-0.12701 -0.41566,-0.23897 -0.65113,-0.33745 -0.23548,-0.0985 -0.4657,-0.18333 -0.62838,-0.28525 -0.16268,-0.10191 -0.25756,-0.22092 -0.29766,-0.39377 -0.0401,-0.17285 -0.0254,-0.39914 -0.13487,-0.46768 -0.1095,-0.0685 -0.34349,0.0207 -0.54416,0.006 -0.20067,-0.0149 -0.36824,-0.13435 -0.41289,-0.34675 -0.0447,-0.2124 0.0339,-0.51756 -0.0129,-0.72864 -0.0467,-0.21109 -0.21883,-0.32802 -0.30851,-0.47129 -0.0897,-0.14326 -0.0968,-0.31296 -0.0734,-0.45061 0.0233,-0.13765 0.077,-0.24292 -0.005,-0.3018 -0.0815,-0.0589 -0.29865,-0.0711 -0.41651,-0.1204 -0.11786,-0.0492 -0.13634,-0.13583 -0.14573,-0.17932 -0.009,-0.0435 -0.009,-0.0439 0.0119,-0.17932 0.0213,-0.13548 0.0644,-0.40668 0.063,-0.58601 -10e-4,-0.17933 -0.0472,-0.26719 -0.10128,-0.38033 -0.0541,-0.11319 -0.11643,-0.25212 -0.03,-0.33125 0.0865,-0.0791 0.32149,-0.0982 0.40308,-0.20671 0.0816,-0.10856 0.01,-0.30701 0.0109,-0.44183 10e-4,-0.13482 0.0764,-0.20595 0.15193,-0.30179 0.0756,-0.0958 0.15175,-0.21634 0.25322,-0.21394 0.10146,0.002 0.22791,0.12793 0.3762,-0.0558 0.1483,-0.18371 0.31891,-0.67647 0.45734,-0.87643 0.0519,-0.075 0.0993,-0.10906 0.14469,-0.11421 z m -2.28668,5.67976 c 0.0378,9e-4 0.0732,0.005 0.10749,0.0145 -0.008,0.038 -0.0184,0.0795 -0.0264,0.12505 -0.0233,0.13764 -0.0174,0.30734 0.0724,0.45062 0.0897,0.14328 0.26232,0.2602 0.30902,0.47129 0.0468,0.21108 -0.0318,0.51573 0.0129,0.72812 0.0446,0.2124 0.21223,0.33237 0.4129,0.34727 0.20067,0.0152 0.43464,-0.0743 0.54415,-0.006 0.10951,0.0685 0.0948,0.29482 0.13487,0.46768 0.0401,0.17286 0.13446,0.29239 0.29714,0.39429 0.16269,0.10193 0.39344,0.18633 0.62891,0.28473 0.23548,0.0985 0.47633,0.21096 0.65164,0.33797 0.17531,0.127 0.28468,0.26917 0.42271,0.36897 0.13801,0.0999 0.30435,0.15802 0.43615,0.22582 0.13181,0.0678 0.22969,0.14516 0.32039,0.11576 0.0906,-0.0294 0.1736,-0.16508 0.28939,-0.25218 0.0536,-0.0403 0.11467,-0.0706 0.17467,-0.0987 -0.0564,0.32243 -0.13388,0.81135 -0.13488,1.2454 -0.001,0.50702 0.10306,0.92382 0.0605,1.29553 -0.0426,0.37171 -0.23237,0.69863 -0.29197,1.02939 -0.0597,0.33075 0.0104,0.66502 -0.0755,1.07539 -0.0858,0.41036 -0.32746,0.89696 -0.39636,1.51567 -0.069,0.61869 0.0351,1.36931 -0.14727,1.61023 -0.18238,0.24092 -0.65099,-0.0274 -1.01234,-0.29248 -0.36135,-0.26505 -0.61537,-0.52678 -0.88109,-0.6811 -0.26571,-0.15431 -0.54321,-0.20091 -0.77204,-0.38344 -0.22883,-0.18252 -0.40903,-0.5012 -0.75293,-0.69143 -0.34391,-0.19022 -0.85146,-0.25171 -1.27382,-0.46664 -0.42236,-0.21492 -0.75976,-0.58367 -1.14515,-0.75602 -0.38538,-0.17236 -0.8192,-0.14816 -1.20561,-0.29404 -0.386435,-0.14589 -0.725154,-0.46176 -1.16169,-0.59893 -0.436544,-0.13711 -0.970865,-0.0953 -1.369943,-0.2372 -0.399074,-0.14189 -0.662978,-0.46833 -1.133781,-0.6165 -0.470798,-0.14825 -1.148278,-0.11785 -1.497583,-0.20825 -0.349304,-0.0905 -0.370322,-0.30198 -0.890384,-0.57723 -0.520066,-0.27524 -1.539435,-0.61397 -2.354896,-0.92087 -0.815459,-0.3069 -1.426865,-0.58148 -1.262455,-0.77877 0.164409,-0.19728 1.10469,-0.31689 1.612822,-0.4408 0.50813,-0.12391 0.584464,-0.25297 0.705383,-0.51159 0.120918,-0.25861 0.286872,-0.64716 0.728121,-0.83613 0.441247,-0.18898 1.157191,-0.17789 1.850016,-0.32453 0.692828,-0.14664 1.362252,-0.4509 1.927531,-0.59272 0.565285,-0.14184 1.026451,-0.12113 1.610755,-0.26665 0.5843,-0.14553 1.291454,-0.45699 1.853634,-0.60875 0.56219,-0.15178 0.979,-0.14439 1.41387,-0.27389 0.43487,-0.12948 0.88831,-0.39661 1.20871,-0.38861 z m -14.215672,5.34437 c 0.156752,0.004 0.322294,0.0211 0.490926,0.0599 0.599583,0.13822 1.240657,0.54573 1.804541,0.7276 0.563886,0.18187 1.050291,0.13833 1.513603,0.34003 0.463315,0.2017 0.903202,0.64844 1.400431,0.8847 0.497231,0.23627 1.051872,0.26269 1.522388,0.43977 0.470518,0.17709 0.856916,0.50456 1.270724,0.66043 0.413806,0.15587 0.855252,0.14023 1.302763,0.27181 0.447508,0.13158 0.900963,0.40999 1.298628,0.52349 0.397658,0.11349 0.739618,0.0622 1.073318,0.20825 0.3337,0.14605 0.65956,0.48937 1.01234,0.66921 0.35277,0.17985 0.73251,0.19652 1.05834,0.39636 0.32582,0.19984 0.5977,0.58254 0.94619,0.77773 0.34849,0.19519 0.7732,0.20343 1.09658,0.35553 0.32338,0.15211 0.54527,0.4473 0.89917,0.74621 0.35389,0.29892 0.83964,0.6017 1.11104,0.85525 0.27141,0.25355 0.32891,0.45811 0.30076,0.7214 -0.0282,0.2633 -0.14181,0.58524 -0.19431,0.99787 -0.0525,0.41262 -0.0439,0.91573 -0.17725,1.21388 -0.13336,0.29815 -0.40901,0.3915 -0.56017,0.74052 -0.15117,0.34904 -0.17808,0.95337 -0.37724,1.26711 -0.19917,0.31374 -0.57039,0.33759 -0.95498,0.19637 -0.38459,-0.14122 -0.78249,-0.44787 -1.06712,-0.59893 -0.28463,-0.15107 -0.4562,-0.14629 -0.74259,-0.35036 -0.28638,-0.20407 -0.68731,-0.6175 -1.1374,-0.87592 -0.4501,-0.25843 -0.94928,-0.36201 -1.46761,-0.56327 -0.51833,-0.20127 -1.055729,-0.49994 -1.615918,-0.82993 -0.56019,-0.32998 -1.14299,-0.69116 -1.72651,-0.9648 -0.58352,-0.27364 -1.168223,-0.46 -1.595251,-0.71726 -0.42703,-0.25726 -0.696566,-0.58569 -1.262972,-0.79892 -0.566407,-0.21323 -1.429376,-0.311 -2.121835,-0.60978 -0.692457,-0.29878 -1.214486,-0.79872 -1.759065,-1.08573 -0.544581,-0.287 -1.111935,-0.36052 -1.844332,-0.65422 -0.732399,-0.29369 -1.62952,-0.80769 -2.124935,-1.11621 -0.495418,-0.30852 -0.589055,-0.41149 -0.480591,-0.62684 0.108464,-0.21536 0.418972,-0.5425 0.621151,-0.86196 0.202176,-0.31946 0.296233,-0.63148 0.422196,-0.86403 0.125963,-0.23254 0.284075,-0.38554 0.429431,-0.59738 0.145357,-0.21183 0.277778,-0.48254 0.344165,-0.61805 0.06639,-0.13551 0.06669,-0.13598 0.345716,-0.20154 0.174391,-0.041 0.457857,-0.10741 0.792199,-0.11782 0.05015,-0.002 0.101229,-0.002 0.153479,-5.2e-4 z m -10.937317,1.24696 v 5.1e-4 c 0.0238,2e-5 0.04762,1.3e-4 0.07131,5.2e-4 0.315494,0.005 0.611737,0.045 0.88315,0.1571 0.434268,0.17931 0.804455,0.5437 1.196826,0.9033 0.392361,0.35962 0.807155,0.71368 1.095541,0.69608 0.288397,-0.0177 0.450858,-0.40759 0.759126,-0.62993 0.308268,-0.22233 0.762193,-0.27627 1.119312,-0.19017 0.357119,0.0861 0.617289,0.31205 0.764294,0.68729 0.147026,0.37525 0.180986,0.89952 0.190686,1.26246 0.0095,0.36294 -0.0056,0.5645 -0.14211,0.89969 -0.136523,0.3352 -0.394874,0.804 -0.393774,1.04696 0.0014,0.24297 0.262564,0.2604 0.549837,0.38706 0.287282,0.12667 0.600944,0.36233 0.816488,0.43253 0.215533,0.0702 0.33322,-0.0253 0.496093,-0.2589 0.162886,-0.2336 0.371026,-0.60514 0.600481,-0.84181 0.15426,-0.1591 0.316342,-0.2574 0.429948,-0.36742 0.318025,0.16593 0.647107,0.325 0.948779,0.44597 0.732397,0.2937 1.300272,0.36722 1.844848,0.65422 0.544576,0.28701 1.066093,0.78694 1.758549,1.08572 0.692458,0.29879 1.555429,0.39656 2.121835,0.60979 0.566405,0.21323 0.836459,0.54165 1.263489,0.79891 0.427029,0.25725 1.011213,0.44362 1.594734,0.71727 0.58352,0.27364 1.165806,0.63482 1.725993,0.9648 0.560189,0.32999 1.098111,0.62867 1.616439,0.82993 0.518335,0.20126 1.017525,0.30536 1.467615,0.56379 0.45009,0.25841 0.851,0.67081 1.1374,0.87488 0.28638,0.20405 0.45796,0.19981 0.74259,0.35088 0.28463,0.15106 0.68253,0.4572 1.06712,0.59841 0.0689,0.0253 0.13702,0.0455 0.20412,0.0594 -0.0525,0.1436 -0.11017,0.28429 -0.17467,0.42375 -0.27255,0.58937 -0.6648,1.16308 -0.7121,1.63349 -0.0473,0.47039 0.25068,0.83691 0.54674,1.27537 0.29607,0.43846 0.59062,0.94817 0.63562,1.44281 0.045,0.49463 -0.15965,0.97455 -0.79065,1.18339 -0.631,0.20886 -1.68891,0.14687 -2.07481,0.19017 -0.3859,0.0433 -0.0994,0.1914 0.25321,0.262 0.3526,0.071 0.77141,0.0639 1.07901,0.0811 0.3076,0.0172 0.50376,0.0583 0.79323,0.29921 0.28947,0.24092 0.67215,0.6812 0.87592,1.32188 0.20384,0.64068 0.22914,1.48159 0.0537,2.11925 -0.17541,0.63767 -0.55123,1.07227 -0.7183,1.61076 -0.16707,0.53848 -0.12575,1.18101 -0.16795,1.61643 -0.0422,0.43542 -0.16856,0.66389 -0.62063,0.77825 -0.45209,0.11424 -1.23001,0.11444 -1.50172,0.20154 -0.27176,0.0871 -0.0368,0.26161 0.0279,0.84698 0.0647,0.58535 -0.0407,1.58147 -0.25838,2.1611 -0.21766,0.57964 -0.54756,0.74323 -0.94619,0.72503 -0.39865,-0.0181 -0.86644,-0.21795 -1.420593,-0.41703 -0.554153,-0.19908 -1.19509,-0.39795 -1.65468,-0.39895 -0.459589,-10e-4 -0.737271,0.19497 -1.150834,0.24547 -0.413562,0.0505 -0.963118,-0.045 -1.454175,-0.29921 -0.491056,-0.25421 -0.923566,-0.66663 -1.034562,-0.9772 -0.111051,-0.31056 0.0998,-0.51847 -0.10542,-0.45527 -0.205223,0.0632 -0.826494,0.39692 -1.373042,0.55604 -0.546561,0.15911 -1.018801,0.14353 -1.419035,-0.0165 -0.400237,-0.16008 -0.728912,-0.46472 -0.857312,-0.86351 -0.128401,-0.39878 -0.05577,-0.89195 0.197404,-1.20096 0.253176,-0.309 0.686426,-0.43364 0.666626,-0.47284 -0.01985,-0.0391 -0.493168,0.007 -0.960665,-0.0884 -0.467531,-0.0955 -0.928623,-0.33294 -1.315682,-0.81649 -0.387072,-0.48354 -0.699836,-1.21352 -0.733806,-1.76268 -0.03397,-0.54916 0.210946,-0.91695 0.120407,-0.90485 -0.0905,0.0121 -0.516306,0.4041 -1.065052,0.64027 -0.548777,0.23627 -1.221074,0.31603 -1.708939,0.15038 -0.487867,-0.16565 -0.791287,-0.57724 -0.883667,-0.61754 -0.09242,-0.0403 0.02631,0.29023 0.10852,0.58446 0.08232,0.29423 0.127576,0.55221 0.05013,0.98341 -0.07743,0.43119 -0.27745,1.03604 -0.583943,1.4919 -0.306473,0.45585 -0.719205,0.7627 -1.1467,0.89451 -0.427496,0.13175 -0.869944,0.0884 -1.028361,0.19276 -0.157869,0.10434 -0.03209,0.3564 -0.0031,0.6227 0.02899,0.2663 -0.0383,0.54686 -0.219108,0.80615 -0.18081,0.25928 -0.475598,0.49779 -0.972551,0.54519 -0.49694,0.0474 -1.196293,-0.0957 -1.706355,-0.28216 -0.510063,-0.18638 -0.830212,-0.41657 -0.937411,-0.39687 -0.107139,0.0197 -0.0013,0.28872 -0.178284,0.64182 -0.176925,0.3531 -0.636355,0.79057 -1.046964,1.02113 -0.4106,0.23064 -0.77285,0.25451 -1.139465,0.15761 -0.366617,-0.0969 -0.737591,-0.31476 -1.070219,-0.33176 -0.33265,-0.017 -0.62645,0.16688 -0.939478,0.23978 -0.313016,0.0726 -0.645495,0.0346 -0.963249,0.0816 -0.317754,0.047 -0.620655,0.17913 -0.925008,0.24753 -0.304351,0.0677 -0.611048,0.0721 -0.909505,0.003 -0.298469,-0.069 -0.588328,-0.21137 -0.762744,-0.73225 -0.174441,-0.52087 -0.232776,-1.42054 -0.155546,-1.94097 0.07727,-0.52043 0.28942,-0.66135 0.289388,-0.70125 -4.4e-5,-0.0396 -0.212427,0.0219 -0.479557,-0.003 -0.267131,-0.025 -0.588754,-0.13615 -0.823206,-0.17725 -0.234462,-0.0411 -0.381636,-0.0122 -0.512113,-0.0574 -0.130466,-0.0452 -0.244258,-0.16453 -0.303858,-0.6382 -0.05966,-0.47366 -0.06446,-1.30182 -0.265617,-1.89084 -0.201154,-0.58902 -0.59884,-0.93954 -0.792716,-1.33429 -0.193854,-0.39476 -0.184103,-0.83328 -0.136943,-1.33687 0.04716,-0.50358 0.131858,-1.07184 0.375688,-1.52755 0.24382,-0.4557 0.646694,-0.79817 0.671794,-1.09968 0.02509,-0.30151 -0.328447,-0.5624 -0.514698,-0.96686 -0.186297,-0.40447 -0.204527,-0.95289 -0.01912,-1.43144 0.185396,-0.47853 0.574406,-0.88692 0.808219,-1.23197 0.233776,-0.34505 0.312313,-0.62745 0.163815,-1.0852 -0.148499,-0.45776 -0.524301,-1.09109 -0.703833,-1.62988 -0.179485,-0.5388 -0.162131,-0.9825 -0.164331,-1.36787 -0.0019,-0.38539 -0.02223,-0.71197 0.196887,-0.97204 0.219103,-0.26005 0.676998,-0.45317 1.116728,-0.55087 0.439729,-0.0976 0.860662,-0.10017 0.982885,-0.19947 0.122234,-0.0993 -0.0541,-0.29565 -0.270784,-0.48007 -0.21669,-0.18441 -0.473415,-0.35647 -0.569474,-0.73226 -0.09609,-0.37578 -0.03103,-0.95535 0.0739,-1.34358 0.104938,-0.38824 0.249707,-0.58493 0.465088,-0.77102 0.215371,-0.18607 0.5014,-0.36132 0.853694,-0.58756 0.352284,-0.22623 0.770694,-0.5034 1.09244,-0.65939 0.321747,-0.15595 0.546621,-0.19126 0.823206,-0.22066 0.276574,-0.0295 0.604884,-0.0536 0.788582,-0.44131 0.183697,-0.38769 0.222815,-1.13939 0.309025,-1.76889 0.08626,-0.62947 0.220115,-1.13656 0.577743,-1.35392 0.357616,-0.21737 0.939316,-0.14449 1.307413,0.13126 0.368098,0.27576 0.522703,0.75381 0.614433,0.68781 0.09178,-0.066 0.12038,-0.67658 0.15813,-1.11931 0.0378,-0.44274 0.08493,-0.71705 0.396875,-0.8878 0.311956,-0.17081 0.888569,-0.23737 1.42627,-0.27337 0.176438,-0.0111 0.348648,-0.0203 0.51573,-0.0201 z m 11.632365,13.61364 v 5.1e-4 c -0.16111,-5.8e-4 -0.390078,0.15416 -0.590661,0.22686 -0.229238,0.083 -0.421344,0.0582 -0.826306,0.26304 -0.404953,0.20479 -1.022839,0.63966 -1.331702,0.85679 -0.308906,0.21718 -0.30839,0.217 -0.36897,0.2713 -0.06051,0.0543 -0.181947,0.16302 -0.232027,0.33073 -0.05034,0.16773 -0.0289,0.39397 -0.0067,0.63976 0.02207,0.24579 0.0454,0.51114 0.08423,0.74155 0.03879,0.23039 0.09326,0.42571 0.240295,0.45631 0.147039,0.0307 0.386427,-0.10255 0.721403,-0.36742 0.334987,-0.26488 0.765386,-0.6612 1.100708,-0.96894 0.335333,-0.30774 0.575785,-0.5272 0.816488,-0.80822 0.240693,-0.28103 0.481862,-0.62397 0.576192,-0.94723 0.0943,-0.32324 0.04177,-0.62719 -0.117822,-0.68419 -0.01992,-0.008 -0.04207,-0.0108 -0.06511,-0.0109 z m -8.111132,0.50798 c -0.328465,-0.004 -0.395841,0.22612 -0.291456,0.54363 0.104408,0.31751 0.381033,0.72266 0.654741,1.01079 0.273696,0.28813 0.544015,0.45896 0.904854,0.7705 0.36084,0.31155 0.811921,0.76382 1.087272,0.9958 0.275341,0.23197 0.374754,0.24404 0.425814,-0.11989 0.05104,-0.36393 0.05419,-1.10365 0.05529,-1.47381 0.0014,-0.37018 0.0013,-0.37073 -0.220658,-0.51728 -0.221935,-0.14655 -0.666032,-0.43995 -1.182357,-0.70487 -0.516316,-0.26492 -1.105073,-0.50187 -1.433504,-0.50487 z" />
  </g>
</svg>
